<svg width='350' height='150' xmlns='http://www.w3.org/2000/svg'>
  <line x1="15" y1="137.5" x2="15" y2="125" stroke="#e6194b" stroke-width="2" />
  <line x1="15" y1="125" x2="15" y2="100" stroke="#e6194b" stroke-width="2" />
  <line x1="15" y1="100" x2="15" y2="25" stroke="#e6194b" stroke-width="2" />
  <line x1="30" y1="137.5" x2="30" y2="75" stroke="#3cb44b" stroke-width="2" />
  <line x1="30" y1="75" x2="30" y2="50" stroke="#3cb44b" stroke-width="2" />
  <path d="M 30 50 C 27 30 18 45 15 25" stroke="#3cb44b" stroke-width="2" fill="none" />
  <circle id="p-abc" cx="15" cy="125" r="5" fill="#e6194b" /> <path id="tp-0-abc" d="M 45 130 L 245 130"/> <text><textPath xmlns:xlink="http://www.w3.org/1999/xlink" xlink:href="#tp-0-abc">abc sonmething</textPath></text>
  <circle id="p-bbc" cx="15" cy="100" r="5" fill="#e6194b" /> <path id="tp-0-bbc" d="M 45 105 L 245 105"/> <text><textPath xmlns:xlink="http://www.w3.org/1999/xlink" xlink:href="#tp-0-bbc">bbc 'do something'</textPath></text>
  <circle id="p-kqi" cx="15" cy="25" r="5" fill="#e6194b" /> <path id="tp-0-kqi" d="M 45 30 L 245 30"/> <text><textPath xmlns:xlink="http://www.w3.org/1999/xlink" xlink:href="#tp-0-kqi">kqi 'merge dev to main'</textPath></text>
  <circle id="p-kqj" cx="30" cy="75" r="5" fill="#3cb44b" /> <path id="tp-0-kqj" d="M 45 80 L 245 80"/> <text><textPath xmlns:xlink="http://www.w3.org/1999/xlink" xlink:href="#tp-0-kqj">kqj 'do something'</textPath></text>
  <circle id="p-bai" cx="30" cy="50" r="5" fill="#3cb44b" /> <path id="tp-0-bai" d="M 45 55 L 245 55"/> <text><textPath xmlns:xlink="http://www.w3.org/1999/xlink" xlink:href="#tp-0-bai">bai 'do something2'</textPath></text>
</svg>